<svg xmlns="http://www.w3.org/2000/svg" id="tos_symbol" width="170" height="170" viewBox="0 0 170 170">
    <defs>
        <style>
            .cls-2{fill:#2a72e5}
        </style>
    </defs>
    <path id="base" fill="none" d="M0 0H170V170H0z"/>
    <g id="symbol" transform="translate(-10 0.612)">
        <path id="패스_231" d="M126.46 61.584l-17.094 27.451 16.722-.012 14.672-28.18-30.944-49.455H52.5l-6.574 11.386h57.708z" class="cls-2"/>
        <path id="패스_232" d="M57.594 69.522l32.928.383L83.83 57.25l-31.776.134-29.127 50.005L52.5 158.612h13.869L36.3 109.2z" class="cls-2"/>
        <path id="패스_233" d="M132.918 100.271l-33.4.023 6.446 12.311 31.776-.006L167.1 62.66l-29.6-51.272h-14.41l30.624 48.942z" class="cls-2"/>
        <path id="패스_234" d="M90.594 45.968l14.848 28.08 7.865-12.631L97.2 34.027H39.429L10 85l6.444 11.161 29.125-50z" class="cls-2"/>
        <path id="패스_235" d="M63.426 108.367l17.015-27.324-16.157-.188-15.022 28 30.28 49.762H137.5l6.6-11.436H86.252z" class="cls-2"/>
        <path id="패스_236" d="M173.57 73.863l-29.389 49.99-45.025.008-14.672-28.022-7.9 12.694 16.11 27.39H150.6L180 85z" class="cls-2"/>
    </g>
</svg>
