<svg xmlns="http://www.w3.org/2000/svg" id="그룹_88" width="26.431" height="28.218" data-name="그룹 88" viewBox="0 0 26.431 28.218">
    <defs>
        <style>
            .cls-1{fill:#6fc4b3}
        </style>
    </defs>
    <path id="패스_429" d="M995.484 511.827c.159-.183.322-.363.49-.552a13.461 13.461 0 0 0-5.025 2.972 12.973 12.973 0 0 0-3.505 5.579c.018-.017.037-.034.054-.052a9.925 9.925 0 0 1 1.679-1.331 15.477 15.477 0 0 1 3.6-1.669.218.218 0 0 0 .157-.157 16.675 16.675 0 0 1 1.03-2.493 11.5 11.5 0 0 1 1.52-2.297z" class="cls-1" data-name="패스 429" transform="translate(-986.824 -495.075)"/>
    <path id="패스_430" d="M1316.751 511.827c-.159-.183-.321-.363-.489-.552a13.448 13.448 0 0 1 5.021 2.972 12.974 12.974 0 0 1 3.5 5.579c-.018-.017-.037-.034-.054-.052a9.915 9.915 0 0 0-1.677-1.331 15.467 15.467 0 0 0-3.594-1.669.217.217 0 0 1-.157-.157 16.645 16.645 0 0 0-1.029-2.493 11.486 11.486 0 0 0-1.521-2.297z" class="cls-1" data-name="패스 430" transform="translate(-1299.012 -495.075)"/>
    <path id="패스_431" d="M1123.241 534.024c.043-.008.084-.013.125-.022a23.97 23.97 0 0 1 2.66-.46c.1-.012.142-.044.162-.145a2.639 2.639 0 0 1 .6-1.236c.142-.164.306-.308.461-.462l-1.556-1.789a11.362 11.362 0 0 0-2.452 4.114z" class="cls-1" data-name="패스 431" transform="translate(-1115.753 -512.767)"/>
    <path id="패스_432" d="M977.809 648.858a6.844 6.844 0 0 0-2.188 2.355 4.011 4.011 0 0 0-.418 1.214h5.013a24.507 24.507 0 0 1 .649-5.138c-.041.01-.058.012-.074.018a13.286 13.286 0 0 0-2.982 1.551z" class="cls-1" data-name="패스 432" transform="translate(-975.203 -624.209)"/>
    <path id="패스_433" d="M1099.148 209.061c.28.325.566.644.863.982.021-.027.031-.041.042-.053.813-.928 1.632-1.85 2.436-2.785a35.681 35.681 0 0 0 2.509-3.262 17.148 17.148 0 0 0 1.693-3.053 6.753 6.753 0 0 0 .491-3.838 7.116 7.116 0 0 0-2.851-4.636 7.274 7.274 0 0 0-11.551 5.047 5.982 5.982 0 0 0 .077 1.922 10.671 10.671 0 0 0 1.17 2.945 27.231 27.231 0 0 0 2.782 4c.76.924 1.557 1.822 2.339 2.731zm-5.02-10.706a5.883 5.883 0 1 1 5.871 5.885 5.894 5.894 0 0 1-5.871-5.885z" class="cls-1" data-name="패스 433" transform="translate(-1086.794 -190.976)"/>
    <path id="패스_434" d="M1272.274 529.813l-1.558 1.784a.142.142 0 0 0 .015.028.206.206 0 0 0 .028.026 2.829 2.829 0 0 1 1.023 1.691c.016.082.062.092.13.1l2.4.4c.134.023.266.056.407.086a11.625 11.625 0 0 0-2.445-4.115z" class="cls-1" data-name="패스 434" transform="translate(-1255.769 -512.675)"/>
    <path id="패스_435" d="M1153.244 248.846a4.687 4.687 0 1 0-4.688 4.69 4.7 4.7 0 0 0 4.688-4.69z" class="cls-1" data-name="패스 435" transform="translate(-1135.34 -241.465)"/>
    <path id="패스_436" d="M1207.2 584.947a1.638 1.638 0 0 0-.68-1.793c-.142.158-.292.311-.426.477a.615.615 0 0 1-1-.018c-.126-.157-.266-.3-.4-.46a1.647 1.647 0 1 0 2.507 1.795z" class="cls-1" data-name="패스 436" transform="translate(-1192.388 -563.316)"/>
    <path id="패스_437" d="M1253.953 625.859a.216.216 0 0 0-.188-.18c-.723-.154-1.444-.322-2.169-.468-.37-.074-.747-.11-1.116-.163a.435.435 0 0 0-.023.047 2.785 2.785 0 0 1-2.029 1.957c-.085.024-.109.061-.108.147v4c0 .036 0 .072.007.107h6.409c-.023-.4-.044-.788-.07-1.177a21.6 21.6 0 0 0-.713-4.27z" class="cls-1" data-name="패스 437" transform="translate(-1234.506 -603.093)"/>
    <path id="패스_438" d="M1181.5 625.161c.013 0 .007 0 0 0z" class="cls-1" data-name="패스 438" transform="translate(-1171.062 -603.201)"/>
    <path id="패스_439" d="M1104.094 627.159a2.722 2.722 0 0 1-1.677-1.212 8.152 8.152 0 0 1-.394-.785 22.586 22.586 0 0 0-3.305.636.154.154 0 0 0-.13.128c-.039.172-.089.342-.132.513a22.15 22.15 0 0 0-.6 3.8c-.029.39-.044.78-.065 1.181h6.423v-.12-3.992c.003-.1-.036-.128-.12-.149z" class="cls-1" data-name="패스 439" transform="translate(-1091.59 -603.201)"/>
    <path id="패스_440" d="M1389.178 648.929a12.372 12.372 0 0 0-2.9-1.648c-.175-.074-.354-.139-.55-.216a24.468 24.468 0 0 1 .661 5.148h5.006a4.083 4.083 0 0 0-.4-1.193 6.424 6.424 0 0 0-1.817-2.091z" class="cls-1" data-name="패스 440" transform="translate(-1364.964 -623.997)"/>
    <path id="패스_441" d="M1181.484 625.16z" class="cls-1" data-name="패스 441" transform="translate(-1171.051 -603.2)"/>
</svg>
