<svg xmlns="http://www.w3.org/2000/svg" width="25.99" height="25.993" viewBox="0 0 25.99 25.993">
    <defs>
        <style>
            .cls-1{fill:#f38776}
        </style>
    </defs>
    <g id="그룹_87" data-name="그룹 87">
        <path id="패스_203" d="M-320.951 833.549a1.644 1.644 0 0 1-1.732-1.722v-2.111a1.817 1.817 0 0 1 .036-.378 1.655 1.655 0 0 1 1.645-1.3h3.805c.006-.057.014-.093.014-.129v-3.159a1.607 1.607 0 0 0-.323-.994 1.684 1.684 0 0 0-1.431-.679q-8.253.007-16.506 0a3.053 3.053 0 0 1-1.786-.511.937.937 0 0 0-.1-.049c0 .067-.009.118-.009.169v14.428a2.084 2.084 0 0 0 .041.425 1.649 1.649 0 0 0 1.713 1.289h16.649a1.652 1.652 0 0 0 1.747-1.756v-3.527h-.218q-1.767.005-3.545.004z" class="cls-1" data-name="패스 203" transform="translate(337.331 -812.841)"/>
        <path id="패스_204" d="M-.549 995.981q-1.119.005-2.237 0c-.121 0-.152.04-.151.156.006.46 0 .92 0 1.38v1.38c0 .12.028.171.159.166.232-.01.465 0 .7 0a1.642 1.642 0 0 0 1.674-1.652c.01-.428 0-.857 0-1.285.004-.117-.038-.145-.145-.145z" class="cls-1" data-name="패스 204" transform="translate(24.191 -975.274)"/>
        <path id="패스_205" d="M-281.138 732.925c.155 0 .193-.046.192-.2-.005-1.709 0-3.418 0-5.126v-.187h-3.731c-.475 0-.673.2-.673.675V732.921h.185c1.339 0 2.683-.002 4.027.004zm-2.564-3.812a.554.554 0 0 1 .559-.6.552.552 0 0 1 .543.6v2.108a.555.555 0 0 1-.558.6.555.555 0 0 1-.544-.6q-.005-1.053.002-2.108z" class="cls-1" data-name="패스 205" transform="translate(288.658 -723.779)"/>
        <path id="패스_206" d="M-196.526 727.555h-2.191c0 .053-.009.089-.009.126v5.222c0 .122.042.151.157.151.619 0 1.238-.007 1.857 0 .155 0 .193-.046.192-.2-.005-1.709 0-3.418 0-5.127z" class="cls-1" data-name="패스 206" transform="translate(207.539 -723.909)"/>
        <path id="패스_207" d="M-144.549 727.972a.545.545 0 0 0-.573-.567h-1.616c0 .058-.009.089-.009.12v5.238c0 .122.043.151.157.15.619 0 1.238-.007 1.857 0 .155 0 .192-.046.192-.2-.006-1.248 0-2.5 0-3.746-.006-.328-.001-.662-.008-.995z" class="cls-1" data-name="패스 207" transform="translate(158.862 -723.768)"/>
        <path id="패스_208" d="M-336.738 764.961a2.115 2.115 0 0 0 1.432.41c.142 0 .177-.045.176-.181-.005-.983 0-1.966 0-2.95 0-.052 0-.1-.008-.171-.246 0-.473-.013-.7 0a1.639 1.639 0 0 0-1.423 1.162 1.589 1.589 0 0 0 .523 1.73z" class="cls-1" data-name="패스 208" transform="translate(337.336 -756.225)"/>
        <path id="패스_209" d="M55.568 875.986a1.075 1.075 0 0 0-1.085-1.087v2.169a1.085 1.085 0 0 0 1.085-1.082z" class="cls-1" data-name="패스 209" transform="translate(-29.58 -861.885)"/>
        <path id="패스_210" d="M-233.156 672.726h6.84a2.1 2.1 0 0 1 .624.086 1.653 1.653 0 0 1 1.131 1.646v4.682c0 .149.036.2.192.2q1.071-.012 2.142 0c.158 0 .2-.036.2-.2q-.008-4.135 0-8.269c0-.474-.2-.676-.675-.676h-10.03a.564.564 0 0 0-.636.633v1.682c-.003.215-.003.216.212.216z" class="cls-1" data-name="패스 210" transform="translate(239.979 -670.195)"/>
        <path id="패스_211" d="M-37.6 765.186c0 .091.036.125.121.153a3.456 3.456 0 0 1 .591.225 2.725 2.725 0 0 1 1.492 2.527c.009 1.01 0 2.021 0 3.031 0 .142.033.19.183.189q1.079-.012 2.158 0c.151 0 .2-.037.2-.192-.006-1.264 0-2.528 0-3.793v-1.365c0-.815.017-1.63-.012-2.443a1.612 1.612 0 0 0-1.617-1.571c-.989-.014-1.978 0-2.967-.006-.1 0-.139.03-.139.135q-.01 1.555-.01 3.11z" class="cls-1" data-name="패스 211" transform="translate(56.651 -756.108)"/>
        <path id="패스_212" d="M-80.634 922.688q-4.15-.006-8.3 0a.562.562 0 0 0-.633.636v2c0 .467.2.665.668.665H-80c.469 0 .669-.2.67-.664v-2.911a.428.428 0 0 0-.078.018 2.659 2.659 0 0 1-1.226.256zm-7.273 2.2a.548.548 0 0 1-.558-.55.549.549 0 0 1 .558-.55.547.547 0 0 1 .542.55.548.548 0 0 1-.542.545zm4.689 0h-2.44a.556.556 0 0 1-.6-.552.556.556 0 0 1 .607-.55h2.441a.549.549 0 0 1 .587.552.549.549 0 0 1-.595.546z" class="cls-1" data-name="패스 212" transform="translate(105.316 -906.381)"/>
    </g>
</svg>
