<svg xmlns="http://www.w3.org/2000/svg" width="14.809" height="14.301" viewBox="0 0 14.809 14.301">
    <defs>
        <style>
            .cls-1{fill:#80a8ba}
        </style>
    </defs>
    <path id="패스_423" d="M-251.01 1249.384a.456.456 0 0 0-.027.064 1.022 1.022 0 0 1-1.723.473c-.636-.61-1.267-1.225-1.9-1.838l-2.6-2.516a1.018 1.018 0 0 0-.054-.048c-.383.2-.741.417-1.125.573a5.352 5.352 0 0 1-7.295-3.982 5.3 5.3 0 0 1 4.544-6.138 5.344 5.344 0 0 1 5.972 4.2 5.087 5.087 0 0 1-.647 3.735.148.148 0 0 0 .03.224q2.21 2.128 4.415 4.26a1.5 1.5 0 0 1 .414.652zm-9.455-4.357a3.849 3.849 0 0 0 3.87-3.778 3.849 3.849 0 0 0-3.846-3.861 3.849 3.849 0 0 0-3.9 3.821 3.854 3.854 0 0 0 3.876 3.818z" class="cls-1" data-name="패스 423" transform="translate(265.82 -1235.926)"/>
</svg>
