<svg xmlns="http://www.w3.org/2000/svg" id="그룹_70" width="32.499" height="32.517" data-name="그룹 70" viewBox="0 0 32.499 32.517">
    <defs>
        <style>
            .cls-1{fill:#ef8f78}
        </style>
    </defs>
    <path id="패스_403" d="M-354.551 672.417v-9.665a3.084 3.084 0 0 1 1.822-2.918 3.4 3.4 0 0 1 1.639-.305c.391.006.348.055.336-.337a2.1 2.1 0 0 1 .4-1.465 1.877 1.877 0 0 1 1.507-.739c.574 0 1.147-.006 1.721 0 .148 0 .186-.046.185-.188-.006-.683 0-1.367 0-2.05a1.885 1.885 0 0 1 1.953-1.948c3.893 0 7.786.016 11.678-.012a1.968 1.968 0 0 1 1.991 1.985c-.012 1.495 0 2.99 0 4.485 0 .269 0 .269.264.269 1.08 0 2.16-.005 3.24 0a3.162 3.162 0 0 1 3.16 2.554 3.973 3.973 0 0 1 .064.746q.008 2.37 0 4.741c0 .16.037.214.208.225a2.5 2.5 0 0 1 2.321 2.445 497.34 497.34 0 0 1 0 5.858 1.875 1.875 0 0 1-1.727 1.836 5.8 5.8 0 0 1-.64.009c-.132 0-.165.045-.164.17.006.464 0 .927 0 1.391a3.176 3.176 0 0 1-3.245 3.264h-.86c-.112 0-.158.039-.188.147a3.138 3.138 0 0 1-3.126 2.385c-6.443 0-12.887-.007-19.33.007a3.183 3.183 0 0 1-3.157-2.553 4.3 4.3 0 0 1-.055-.783q0-4.777.003-9.554zm24.5 5.531H-334.403a1.9 1.9 0 0 1-2-1.986q-.005-1.217 0-2.434a2.105 2.105 0 0 1 .042-.436 1.909 1.909 0 0 1 1.9-1.5c1.385-.005 2.77 0 4.155 0h.237c.007-.066.016-.108.016-.149v-3.642a1.853 1.853 0 0 0-.372-1.146 1.942 1.942 0 0 0-1.65-.783q-9.517.008-19.035 0a3.522 3.522 0 0 1-2.059-.59 1.055 1.055 0 0 0-.111-.056c0 .077-.01.136-.01.2v16.638a2.4 2.4 0 0 0 .047.49 1.9 1.9 0 0 0 1.976 1.486h19.2a1.905 1.905 0 0 0 2.015-2.026v-3.844zm-9.065-23.881h-5.82a.65.65 0 0 0-.734.73v1.94c0 .247 0 .248.248.248h7.888a2.433 2.433 0 0 1 .72.1 1.907 1.907 0 0 1 1.3 1.9v5.4c0 .172.041.229.221.227q1.235-.014 2.471 0c.182 0 .236-.042.236-.232q-.009-4.768 0-9.536c0-.547-.233-.779-.779-.779zM-325.858 667v-1.574c0-.939.02-1.88-.014-2.818a1.859 1.859 0 0 0-1.865-1.812c-1.14-.016-2.281 0-3.422-.006-.117 0-.161.034-.16.155v3.587c0 .105.042.144.139.176a4 4 0 0 1 .681.26 3.143 3.143 0 0 1 1.72 2.914c.01 1.165.005 2.33 0 3.5 0 .164.038.219.212.218q1.244-.014 2.489 0c.174 0 .227-.043.226-.221-.009-1.461-.006-2.918-.006-4.379zm2.54 5.55a.483.483 0 0 0-.091.021 3.068 3.068 0 0 1-1.418.3q-4.786-.007-9.572 0a.648.648 0 0 0-.73.733v2.306c0 .539.23.767.771.767h10.268c.541 0 .772-.228.772-.766v-3.148zm-26.162-7.943h4.862c.178 0 .222-.052.222-.226-.006-1.971 0-3.941 0-5.912v-.215h-4.3c-.548 0-.777.229-.777.778v5.344zm6.362-6.339c0 .062-.01.1-.01.145v6.022c0 .141.049.175.181.174.714-.005 1.428-.008 2.142 0 .179 0 .222-.053.222-.226-.006-1.971 0-3.942 0-5.913v-.2zm3.811-.01c-.005.066-.011.1-.011.138v6.04c0 .141.049.174.181.173.714-.005 1.428-.008 2.141 0 .179 0 .222-.053.221-.226-.007-1.44 0-2.88 0-4.319 0-.384.005-.769 0-1.153a.629.629 0 0 0-.66-.654h-.75zm10.529 21.456v1.592c0 .139.032.2.183.191.268-.011.537 0 .8 0a1.894 1.894 0 0 0 1.931-1.905c.012-.494 0-.988.005-1.482 0-.131-.046-.164-.17-.163q-1.29.006-2.58 0c-.14 0-.175.047-.174.18.01.529.006 1.06.006 1.59zm-21.981-18.911c-.283 0-.546-.016-.805 0a1.89 1.89 0 0 0-1.641 1.34 1.832 1.832 0 0 0 .6 1.992 2.439 2.439 0 0 0 1.651.473c.164 0 .2-.052.2-.209-.006-1.134 0-2.268 0-3.4.005-.055 0-.115-.004-.192zm26.187 8.268v2.5a1.251 1.251 0 0 0 1.251-1.247 1.239 1.239 0 0 0-1.25-1.25z" class="cls-1" data-name="패스 403" transform="translate(354.551 -652.791)"/>
    <path id="패스_404" d="M-35.462 945.218h-1.407a.641.641 0 0 1-.7-.636.641.641 0 0 1 .7-.634h2.815a.632.632 0 0 1 .676.636.633.633 0 0 1-.679.633c-.467.003-.936.001-1.405.001z" class="cls-1" data-name="패스 404" transform="translate(60.8 -922.606)"/>
    <path id="패스_405" d="M-71.574 945.251a.632.632 0 0 1-.644-.634.633.633 0 0 1 .644-.634.631.631 0 0 1 .625.634.632.632 0 0 1-.625.634z" class="cls-1" data-name="패스 405" transform="translate(92.912 -922.64)"/>
    <path id="패스_406" d="M-258.126 746.629v1.207a.641.641 0 0 1-.643.69.64.64 0 0 1-.627-.688q-.005-1.216 0-2.432a.639.639 0 0 1 .644-.689.636.636 0 0 1 .627.687c.002.409-.001.817-.001 1.225z" class="cls-1" data-name="패스 406" transform="translate(266.374 -737.979)"/>
</svg>
