<svg xmlns="http://www.w3.org/2000/svg" width="11" height="14" viewBox="0 0 11 14">
    <defs>
        <style>
            .cls-1{fill:#ff4c1f}.cls-3{fill:#ffdd56}
        </style>
    </defs>
    <g id="booster_icon" transform="translate(-257.591 -143.891)">
        <path id="패스_239" d="M267.659 149.821c.116.448-.376.926-.376.926s-.9.582-.723-1.913-3.848-4.943-3.848-4.943.023.238 0 1.882c-.029 2.069-1.244 1.361-1.244 1.361-1.215 1.276-1.1 4.155-1.1 4.155-1.5 1.3-1.559-1.405-1.559-1.405a3.99 3.99 0 0 0 .2 5.868s.45.439-.269.3c-.512-.1-.628-.3-.628-.3s.1 1.256 3.713 2.04a6.974 6.974 0 0 0 2.462-.019c2.784-.614 3.269-1.751 3.269-1.751s-.059.1-.521.149c-.5.05-.07-.419-.07-.419 3.269-2.014.578-6.379.694-5.931z" class="cls-1" transform="translate(0)"/>
        <path id="패스_240" fill="#ff9c45" d="M352.986 322.56a1.6 1.6 0 0 0 .152-1.743c-1.02.514-1.326.155-1.417-.136a.76.76 0 0 1-.021-.356c.66-3.791-1.9-5.839-1.838-5.333a1.728 1.728 0 0 1-.055.56 3.835 3.835 0 0 1-.617 1.36 9.892 9.892 0 0 0-1.52 3.607c-.564 2.615-2.191.723-2.191.723s-.951 3.187 2.933 5.163a4.33 4.33 0 0 0 5.29-3.42s-1.366.574-.716-.425z" transform="translate(-86.515 -168.601)"/>
        <g id="그룹_5569" transform="translate(260.638 150.747)">
            <path id="패스_242" d="M473.2 630.156a1.606 1.606 0 0 1-1.3.849c-1.041.17-.586-3.382-.586-3.382a3.782 3.782 0 0 0-2.083 3.977.717.717 0 0 1-.933 0 3.925 3.925 0 0 0 1.887 3.153 7.222 7.222 0 0 0 1.123-.019c1.152-.784 1.764-3.241 1.764-3.241l-.528.32z" class="cls-3" transform="translate(-468.255 -627.623)"/>
        </g>
        <path id="패스_243" d="M300.618 362.194a2.294 2.294 0 0 1 .581-1.854.694.694 0 0 0 .248-.293.7.7 0 0 0 .082-.4 1.808 1.808 0 0 1-.911 2.547z" class="cls-1" transform="translate(-42.392 -212.657)"/>
        <path id="패스_244" fill="#fcfbcc" d="M539.9 856.6a9.9 9.9 0 0 0 1.085-2.391.574.574 0 0 1-.637.34c-.691-.071-1.07-1.871-1.07-1.871s-.574 1.531-.694 1.757c-.254.478-.723 0-.723 0-.124.778.866 1.893 1.151 2.194a7.11 7.11 0 0 0 .888-.029z" transform="translate(-276.2 -698.742)"/>
    </g>
</svg>
