<svg xmlns="http://www.w3.org/2000/svg" width="191" height="20" viewBox="0 0 191 20">
    <path fill="none" d="M0 0H191V20H0z"/>
    <g>
        <path d="M717.313 185.475h-2.65a.578.578 0 0 1-.655-.653v-18.694a.578.578 0 0 1 .655-.653h32.691q.623 0 .623.653v2.115q0 .653-.623.653h-29.012q-.374 0-.374.341v4.821a.331.331 0 0 0 .374.374h18.328a.577.577 0 0 1 .654.653v2.085q0 .684-.654.684h-18.328q-.374 0-.374.342v6.625a.578.578 0 0 1-.655.654z" transform="translate(-714.009 -165.475)"/>
        <path d="M804.287 185.475h-33a.578.578 0 0 1-.655-.653v-18.694a.578.578 0 0 1 .655-.653h2.65a.578.578 0 0 1 .655.653v15.552c0 .228.125.341.374.341h29.323q.623 0 .624.685v2.115q-.002.654-.626.654z" transform="translate(-714.009 -165.475) translate(-19.848)"/>
        <path d="M827.2 184.822v-18.694a.578.578 0 0 1 .654-.653H858.3a5.2 5.2 0 0 1 3.788 1.321 5 5 0 0 1 1.356 3.749v9.855a5 5 0 0 1-1.356 3.749 5.2 5.2 0 0 1-3.788 1.322h-30.441a.578.578 0 0 1-.659-.649zm4.3-2.768h26.15a1.55 1.55 0 0 0 1.839-1.835v-9.487a1.549 1.549 0 0 0-1.839-1.835h-26.143a.3.3 0 0 0-.344.341v12.473a.3.3 0 0 0 .344.342z" transform="translate(-714.009 -165.475) translate(-39.68)"/>
        <path d="M893.531 185.356v-.428a.4.4 0 0 1 .451-.449h1.818a.4.4 0 0 1 .451.449v.171a1.5 1.5 0 0 0 .321 1.113 1.746 1.746 0 0 0 1.179.3h1.008a1.671 1.671 0 0 0 1.168-.321 1.654 1.654 0 0 0 .333-1.2v-.257a1.072 1.072 0 0 0-.5-.953 2.667 2.667 0 0 0-1.254-.4 13.436 13.436 0 0 1-1.619-.246 10.4 10.4 0 0 1-1.619-.471 2.532 2.532 0 0 1-1.255-1.134 4.188 4.188 0 0 1-.5-2.171v-.749a3.448 3.448 0 0 1 .944-2.589 3.588 3.588 0 0 1 2.617-.92h2.144a3.616 3.616 0 0 1 2.637.92 3.448 3.448 0 0 1 .944 2.589v.406a.4.4 0 0 1-.451.45h-1.822a.4.4 0 0 1-.451-.45v-.128a1.537 1.537 0 0 0-.322-1.134 1.752 1.752 0 0 0-1.179-.3h-.836a1.622 1.622 0 0 0-1.19.332 1.949 1.949 0 0 0-.31 1.294v.407q0 1.006 1.758 1.155a10.9 10.9 0 0 1 3.238.728 2.745 2.745 0 0 1 1.255 1.144 3.987 3.987 0 0 1 .5 2.108v.727a3.452 3.452 0 0 1-.944 2.589 3.592 3.592 0 0 1-2.617.92h-2.338a3.589 3.589 0 0 1-2.616-.92 3.449 3.449 0 0 1-.943-2.582z" transform="translate(-714.009 -165.475) translate(-62.922 -3.39)"/>
        <path d="M915.523 188.865h-1.8q-.472 0-.472-.45V177.7a.208.208 0 0 0-.236-.235h-2.445a.4.4 0 0 1-.451-.45v-1.455a.4.4 0 0 1 .451-.449h8.106a.4.4 0 0 1 .451.449v1.455a.4.4 0 0 1-.451.45h-2.445c-.172 0-.258.078-.258.235v10.72a.4.4 0 0 1-.45.445z" transform="translate(-714.009 -165.475) translate(-68.744 -3.39)"/>
        <path d="M927.442 188.865h-2.059q-.386 0-.257-.45l3.389-12.86a.614.614 0 0 1 .643-.449h2.852a.577.577 0 0 1 .644.449l3.388 12.86c.086.3 0 .45-.257.45h-2.058a.423.423 0 0 1-.322-.1.732.732 0 0 1-.129-.353l-.6-2.354h-4.181l-.6 2.354a.663.663 0 0 1-.14.353.427.427 0 0 1-.313.1zm3.11-11.17l-1.544 6.184h3.174l-1.544-6.184z" transform="translate(-714.009 -165.475) translate(-73.993 -3.39)"/>
        <path d="M947.162 188.865h-1.823a.4.4 0 0 1-.45-.45v-12.86a.4.4 0 0 1 .45-.449h5.1a3.59 3.59 0 0 1 2.617.92 3.45 3.45 0 0 1 .943 2.589v1.669a3.123 3.123 0 0 1-1.908 3.21v.086l2.295 4.771c.129.343.006.514-.364.514h-1.737a1.332 1.332 0 0 1-.558-.086.636.636 0 0 1-.279-.364l-2.145-4.622h-1.433c-.171 0-.258.078-.258.235v4.386a.4.4 0 0 1-.45.451zm.686-7.254h2.1a1.48 1.48 0 0 0 1.008-.289 1.194 1.194 0 0 0 .322-.931v-1.669a1.264 1.264 0 0 0-.322-.963 1.444 1.444 0 0 0-1.008-.3h-2.1a.208.208 0 0 0-.236.235v3.681a.208.208 0 0 0 .237.237z" transform="translate(-714.009 -165.475) translate(-80.933 -3.39)"/>
        <path d="M966.605 188.865h-1.8q-.471 0-.471-.45V177.7a.208.208 0 0 0-.236-.235h-2.445a.4.4 0 0 1-.45-.45v-1.455a.4.4 0 0 1 .45-.449h8.107a.4.4 0 0 1 .451.449v1.455a.4.4 0 0 1-.451.45h-2.445q-.258 0-.258.235v10.72a.4.4 0 0 1-.452.445z" transform="translate(-714.009 -165.475) translate(-86.651 -3.39)"/>
        <path d="M985.042 188.865h-7.013a.4.4 0 0 1-.45-.45v-12.86a.4.4 0 0 1 .45-.449h7.013q.429 0 .429.449v1.455q0 .45-.429.45h-4.483q-.257 0-.257.235v2.782q0 .235.257.235h3.668a.4.4 0 0 1 .45.449v1.455a.4.4 0 0 1-.45.449h-3.668q-.257 0-.257.235v2.974q0 .236.257.236h4.483q.429 0 .429.449v1.455q0 .452-.429.451z" transform="translate(-714.009 -165.475) translate(-92.392 -3.39)"/>
        <path d="M995.668 188.865h-1.823a.4.4 0 0 1-.45-.45v-12.86a.4.4 0 0 1 .45-.449h5.1a3.59 3.59 0 0 1 2.617.92 3.45 3.45 0 0 1 .943 2.589v1.669a3.123 3.123 0 0 1-1.908 3.21v.086l2.295 4.771q.193.514-.364.514h-1.737a1.332 1.332 0 0 1-.558-.086.635.635 0 0 1-.279-.364l-2.144-4.622h-1.437c-.172 0-.258.078-.258.235v4.386a.4.4 0 0 1-.447.451zm.686-7.254h2.1a1.481 1.481 0 0 0 1.008-.289 1.2 1.2 0 0 0 .321-.931v-1.669a1.264 1.264 0 0 0-.321-.963 1.444 1.444 0 0 0-1.008-.3h-2.1a.208.208 0 0 0-.236.235v3.681a.208.208 0 0 0 .237.237z" transform="translate(-714.009 -165.475) translate(-97.936 -3.39)"/>
    </g>
</svg>
