<svg xmlns="http://www.w3.org/2000/svg" id="fld_bi_c" width="288" height="30" viewBox="0 0 288 30">
    <defs>
        <style>
            .cls-2{fill:#ffff07}
        </style>
    </defs>
    <path id="Base" fill="none" d="M0 0H191V20H0z"/>
    <g id="그룹_5406">
        <path id="패스_88" d="M718.991 195.475h-4a.869.869 0 0 1-.987-.98v-28.04a.869.869 0 0 1 .987-.98h49.292q.939 0 .939.98v3.173q0 .98-.939.98h-43.74q-.564 0-.564.512v7.232a.5.5 0 0 0 .564.561h27.637a.868.868 0 0 1 .986.979v3.127q0 1.026-.986 1.026h-27.637q-.564 0-.564.513v9.942a.869.869 0 0 1-.988.975z" class="cls-2" transform="translate(-714.009 -165.475)"/>
        <path id="패스_89" d="M821.38 195.475h-49.762a.869.869 0 0 1-.987-.98v-28.04a.869.869 0 0 1 .987-.98h4a.869.869 0 0 1 .987.98v23.328c0 .342.188.512.564.512h44.211q.939 0 .94 1.027v3.178q0 .975-.94.975z" class="cls-2" transform="translate(-715.182 -165.475)"/>
        <path id="패스_90" d="M827.2 194.5v-28.04a.869.869 0 0 1 .986-.98H874.1a7.867 7.867 0 0 1 5.711 1.982 7.472 7.472 0 0 1 2.045 5.623v14.789a7.472 7.472 0 0 1-2.045 5.623 7.863 7.863 0 0 1-5.711 1.983h-45.909a.869.869 0 0 1-.991-.98zm6.487-4.152h39.419a2.97 2.97 0 0 0 2.14-.631 2.921 2.921 0 0 0 .633-2.122V173.36a2.925 2.925 0 0 0-.633-2.123 2.97 2.97 0 0 0-2.14-.63h-39.414a.455.455 0 0 0-.518.512v18.71a.456.456 0 0 0 .518.514z" class="cls-2" transform="translate(-716.353 -165.475)"/>
        <path id="패스_91" d="M893.542 190.48v-.642a.6.6 0 0 1 .68-.674h2.748a.6.6 0 0 1 .68.674v.257a2.242 2.242 0 0 0 .485 1.669 2.644 2.644 0 0 0 1.778.45h1.52a2.528 2.528 0 0 0 1.762-.482 2.472 2.472 0 0 0 .5-1.8v-.385a1.605 1.605 0 0 0-.76-1.429 4.036 4.036 0 0 0-1.891-.594 20.365 20.365 0 0 1-2.441-.368 15.743 15.743 0 0 1-2.441-.707 3.812 3.812 0 0 1-1.892-1.7 6.255 6.255 0 0 1-.76-3.257v-1.122a5.156 5.156 0 0 1 1.423-3.883 5.426 5.426 0 0 1 3.945-1.38h3.233a5.47 5.47 0 0 1 3.977 1.38 5.157 5.157 0 0 1 1.424 3.883v.609a.6.6 0 0 1-.68.675h-2.748a.6.6 0 0 1-.68-.675v-.192a2.3 2.3 0 0 0-.485-1.7 2.651 2.651 0 0 0-1.778-.449h-1.261a2.454 2.454 0 0 0-1.795.5 2.913 2.913 0 0 0-.468 1.941v.61q0 1.509 2.651 1.733a16.5 16.5 0 0 1 4.883 1.092 4.132 4.132 0 0 1 1.892 1.717 5.956 5.956 0 0 1 .76 3.162v1.091a5.163 5.163 0 0 1-1.423 3.884 5.433 5.433 0 0 1-3.946 1.38h-3.524a5.429 5.429 0 0 1-3.945-1.38 5.159 5.159 0 0 1-1.423-3.888z" class="cls-2" transform="translate(-717.726 -165.745)"/>
        <path id="패스_92" d="M918.268 195.745h-2.716q-.711 0-.711-.675v-16.08a.313.313 0 0 0-.356-.353H910.8a.6.6 0 0 1-.679-.675v-2.182a.6.6 0 0 1 .679-.674h12.223a.6.6 0 0 1 .68.674v2.182a.6.6 0 0 1-.68.675h-3.686c-.259 0-.389.118-.389.353v16.08a.6.6 0 0 1-.68.675z" class="cls-2" transform="translate(-718.07 -165.745)"/>
        <path id="패스_93" d="M928.634 195.745h-3.1q-.582 0-.388-.675l5.11-19.289a.926.926 0 0 1 .969-.674h4.3a.869.869 0 0 1 .97.674l5.105 19.289c.13.45 0 .675-.388.675h-3.1a.64.64 0 0 1-.486-.145 1.094 1.094 0 0 1-.194-.53l-.906-3.53h-6.3l-.906 3.53a.991.991 0 0 1-.211.53.646.646 0 0 1-.475.145zm4.689-16.754L931 188.266h4.786l-2.328-9.276z" class="cls-2" transform="translate(-718.381 -165.745)"/>
        <path id="패스_94" d="M948.316 195.745h-2.749a.6.6 0 0 1-.679-.675v-19.289a.6.6 0 0 1 .679-.674h7.7a5.43 5.43 0 0 1 3.946 1.38 5.16 5.16 0 0 1 1.422 3.883v2.5q0 3.627-2.877 4.815v.128l3.46 7.157q.291.771-.549.771h-2.62a2.018 2.018 0 0 1-.841-.128.955.955 0 0 1-.42-.546l-3.234-6.932h-2.166c-.258 0-.389.118-.389.353v6.579a.6.6 0 0 1-.683.678zm1.035-10.881h3.169a2.24 2.24 0 0 0 1.52-.434 1.786 1.786 0 0 0 .485-1.4v-2.5a1.89 1.89 0 0 0-.485-1.444 2.185 2.185 0 0 0-1.52-.449h-3.169a.313.313 0 0 0-.357.353v5.521a.313.313 0 0 0 .358.353z" class="cls-2" transform="translate(-718.791 -165.745)"/>
        <path id="패스_95" d="M969.349 195.745h-2.716q-.711 0-.711-.675v-16.08a.313.313 0 0 0-.357-.353h-3.685a.6.6 0 0 1-.679-.675v-2.182a.6.6 0 0 1 .679-.674h12.22a.6.6 0 0 1 .68.674v2.182a.6.6 0 0 1-.68.675h-3.686c-.26 0-.389.118-.389.353v16.08a.6.6 0 0 1-.676.675z" class="cls-2" transform="translate(-719.128 -165.745)"/>
        <path id="패스_96" d="M988.832 195.745h-10.575a.6.6 0 0 1-.679-.675v-19.289a.6.6 0 0 1 .679-.674h10.574q.646 0 .646.674v2.182q0 .675-.646.675h-6.759q-.387 0-.388.353v4.173q0 .353.388.353h5.53a.6.6 0 0 1 .679.674v2.183a.6.6 0 0 1-.679.674h-5.53q-.387 0-.388.353v4.461q0 .354.388.354h6.759q.646 0 .646.674v2.182q.001.673-.645.673z" class="cls-2" transform="translate(-719.467 -165.745)"/>
        <path id="패스_97" d="M996.822 195.745h-2.749a.6.6 0 0 1-.679-.675v-19.289a.6.6 0 0 1 .679-.674h7.7a5.43 5.43 0 0 1 3.946 1.38 5.16 5.16 0 0 1 1.422 3.883v2.5q0 3.627-2.877 4.815v.128l3.46 7.157q.291.771-.549.771h-2.62a2.017 2.017 0 0 1-.841-.128.954.954 0 0 1-.42-.546l-3.234-6.932h-2.17c-.259 0-.389.118-.389.353v6.579a.6.6 0 0 1-.679.678zm1.035-10.881h3.169a2.241 2.241 0 0 0 1.52-.434 1.786 1.786 0 0 0 .485-1.4v-2.5a1.89 1.89 0 0 0-.485-1.444 2.185 2.185 0 0 0-1.52-.449h-3.169a.313.313 0 0 0-.356.353v5.521a.313.313 0 0 0 .356.353z" class="cls-2" transform="translate(-719.795 -165.745)"/>
    </g>
</svg>
