<svg xmlns="http://www.w3.org/2000/svg" id="fld_bi" width="182" height="25" viewBox="0 0 182 25">
    <defs>
        <style>
            .cls-2{fill:#fff}
        </style>
    </defs>
    <path id="Base" fill="none" d="M0 0H182V25H0z" transform="translate(0 0)"/>
    <g id="그룹_5546" transform="translate(-155.115 -111.996)">
        <g id="그룹_5544" transform="translate(191.428 116.311)">
            <path id="패스_215" d="M273.939 141.077H271.8q-.56 0-.56-.535v-12.754a.247.247 0 0 0-.28-.28h-8.337a.473.473 0 0 1-.534-.535v-1.731a.472.472 0 0 1 .534-.535h20.494a.473.473 0 0 1 .535.535v1.731a.473.473 0 0 1-.535.535h-8.337q-.306 0-.306.28v12.755a.472.472 0 0 1-.535.534z" class="cls-2" transform="translate(-262.089 -124.707)"/>
            <path id="패스_216" d="M347.8 141.077h-13.041a4.261 4.261 0 0 1-3.106-1.069 4.112 4.112 0 0 1-1.095-3.081v-8.071a4.112 4.112 0 0 1 1.095-3.081 4.26 4.26 0 0 1 3.106-1.069H347.8a4.261 4.261 0 0 1 3.106 1.069 4.115 4.115 0 0 1 1.094 3.082v8.071a4.115 4.115 0 0 1-1.095 3.081 4.262 4.262 0 0 1-3.105 1.068zm-12.533-2.8h12a1.267 1.267 0 0 0 1.5-1.5v-7.765a1.267 1.267 0 0 0-1.5-1.5h-12a1.554 1.554 0 0 0-1.146.344 1.643 1.643 0 0 0-.331 1.158v7.765a1.643 1.643 0 0 0 .331 1.159 1.554 1.554 0 0 0 1.147.339z" class="cls-2" transform="translate(-307.315 -124.707)"/>
            <path id="패스_217" d="M405.373 141.077h-2.113a.473.473 0 0 1-.535-.535v-15.3a.473.473 0 0 1 .535-.535h1.909c.356 0 .388.018.736.319l14.97 11.385h.1v-11.169a.472.472 0 0 1 .535-.535h2.113a.473.473 0 0 1 .535.535v15.3a.473.473 0 0 1-.535.535h-1.858c-.374 0-.453-.131-.865-.452L406.009 129.4h-.1v11.143a.472.472 0 0 1-.536.534z" class="cls-2" transform="translate(-354.985 -124.707)"/>
            <path id="패스_218" d="M474.368 136.9v-.509a.473.473 0 0 1 .535-.535h2.164a.473.473 0 0 1 .535.535v.2a1.786 1.786 0 0 0 .382 1.324 2.071 2.071 0 0 0 1.4.356h11.387a1.478 1.478 0 0 0 1.782-1.808v-.645a1.278 1.278 0 0 0-.6-1.133 2.833 2.833 0 0 0-1.535-.323c-.6 0-11.379.043-12.067-.1a12.394 12.394 0 0 1-1.922-.56 3.015 3.015 0 0 1-1.49-1.349 5 5 0 0 1-.6-2.584v-.891a4.11 4.11 0 0 1 1.121-3.081 4.255 4.255 0 0 1 3.106-1.094h12.736a4.294 4.294 0 0 1 3.132 1.094 4.112 4.112 0 0 1 1.12 3.081v.484a.473.473 0 0 1-.535.535h-2.164a.473.473 0 0 1-.535-.535v-.153a1.832 1.832 0 0 0-.382-1.349 2.078 2.078 0 0 0-1.4-.356h-11.179a1.924 1.924 0 0 0-1.413.394 2.323 2.323 0 0 0-.369 1.54v.738c0 .8.692 1.33 2.088 1.375 1.585.051 12.172-.185 14.034.271a2.793 2.793 0 0 1 1.49 1.362 4.751 4.751 0 0 1 .6 2.508v1.208a4.112 4.112 0 0 1-1.12 3.081 4.255 4.255 0 0 1-3.106 1.094H478.6a4.255 4.255 0 0 1-3.106-1.094 4.111 4.111 0 0 1-1.126-3.081z" class="cls-2" transform="translate(-402.291 -124.707)"/>
            <path id="패스_219" d="M546.064 151.7h-1.426q-.373 0-.373-.356v-8.5a.165.165 0 0 0-.187-.187h-1.935a.315.315 0 0 1-.357-.357v-1.154a.315.315 0 0 1 .357-.356h6.416a.315.315 0 0 1 .356.356v1.154a.315.315 0 0 1-.356.357h-1.935c-.135 0-.2.062-.2.187v8.5a.315.315 0 0 1-.36.356z" class="cls-2" transform="translate(-446.84 -135.325)"/>
            <path id="패스_220" d="M566.319 151.7h-1.629q-.306 0-.2-.356l2.681-10.2a.487.487 0 0 1 .509-.356h2.258a.456.456 0 0 1 .509.356l2.682 10.2q.1.357-.2.356H571.3a.335.335 0 0 1-.255-.076.577.577 0 0 1-.1-.28l-.475-1.867h-3.31l-.475 1.867a.527.527 0 0 1-.11.28.34.34 0 0 1-.256.076zm2.461-8.86l-1.222 4.905h2.512l-1.222-4.905z" class="cls-2" transform="translate(-461.818 -135.325)"/>
            <path id="패스_221" d="M596.234 151.7h-1.443a.315.315 0 0 1-.356-.356v-10.2a.315.315 0 0 1 .356-.356h4.04a2.838 2.838 0 0 1 2.07.73 2.74 2.74 0 0 1 .747 2.054v1.324a2.477 2.477 0 0 1-1.511 2.546v.068l1.816 3.785q.153.408-.289.407h-1.375a1.047 1.047 0 0 1-.441-.068.5.5 0 0 1-.221-.289l-1.7-3.666h-1.137q-.2 0-.2.186v3.479a.315.315 0 0 1-.356.356zm.543-5.754h1.663a1.169 1.169 0 0 0 .8-.229.949.949 0 0 0 .255-.738v-1.329a1 1 0 0 0-.255-.764 1.142 1.142 0 0 0-.8-.237h-1.663a.165.165 0 0 0-.187.187v2.919a.165.165 0 0 0 .188.186z" class="cls-2" transform="translate(-481.617 -135.325)"/>
            <path id="패스_222" d="M623.412 151.7h-1.426q-.373 0-.373-.356v-8.5a.165.165 0 0 0-.187-.187h-1.935a.315.315 0 0 1-.356-.357v-1.154a.315.315 0 0 1 .356-.356h6.416a.315.315 0 0 1 .356.356v1.154a.315.315 0 0 1-.356.357h-1.935q-.2 0-.2.187v8.5a.315.315 0 0 1-.36.356z" class="cls-2" transform="translate(-497.932 -135.325)"/>
            <path id="패스_223" d="M649.842 151.7h-5.551a.315.315 0 0 1-.356-.356v-10.2a.315.315 0 0 1 .356-.356h5.551q.339 0 .339.356v1.154q0 .356-.339.357h-3.547q-.2 0-.2.187v2.206c0 .125.068.186.2.186h2.9a.315.315 0 0 1 .356.356v1.155a.315.315 0 0 1-.356.356h-2.9c-.136 0-.2.062-.2.187v2.359c0 .125.068.187.2.187h3.547q.339 0 .339.356v1.154q0 .356-.339.356z" class="cls-2" transform="translate(-514.313 -135.325)"/>
            <path id="패스_224" d="M669.684 151.7h-1.443a.315.315 0 0 1-.356-.356v-10.2a.315.315 0 0 1 .356-.356h4.04a2.837 2.837 0 0 1 2.07.73 2.74 2.74 0 0 1 .747 2.054v1.324a2.477 2.477 0 0 1-1.511 2.546v.068l1.816 3.785q.153.408-.289.407h-1.375a1.047 1.047 0 0 1-.441-.068.5.5 0 0 1-.221-.289l-1.7-3.666h-1.137q-.2 0-.2.186v3.479a.315.315 0 0 1-.356.356zm.543-5.754h1.663a1.169 1.169 0 0 0 .8-.229.949.949 0 0 0 .255-.738v-1.329a1 1 0 0 0-.255-.764 1.141 1.141 0 0 0-.8-.237h-1.663a.165.165 0 0 0-.187.187v2.919a.165.165 0 0 0 .187.186z" class="cls-2" transform="translate(-530.133 -135.325)"/>
        </g>
        <g id="그룹_5545" transform="translate(155.115 111.996)">
            <path id="패스_225" d="M186.762 120.52l-2.9 4.661h2.84l2.491-4.785-5.254-8.4H174.2l-1.116 1.934h9.8z" class="cls-2" transform="translate(-166.986 -111.996)"/>
            <path id="패스_226" d="M167.468 137.021l5.592.065-1.136-2.149-5.4.023-4.946 8.491 5.022 8.7h2.355l-5.106-8.39z" class="cls-2" transform="translate(-159.386 -127.15)"/>
            <path id="패스_227" d="M205.567 127.089h-5.671l1.095 2.091h5.4l4.986-8.48-5.032-8.7H203.9l5.2 8.311z" class="cls-2" transform="translate(-184.694 -111.996)"/>
            <path id="패스_228" d="M168.8 125.348l2.521 4.768 1.336-2.145-2.736-4.651h-9.81l-5 8.656 1.094 1.9 4.946-8.491z" class="cls-2" transform="translate(-155.115 -119.476)"/>
            <path id="패스_229" d="M177.16 151.417l2.889-4.64-2.744-.032-2.551 4.754 5.142 8.45h9.842l1.121-1.942h-9.823z" class="cls-2" transform="translate(-168.088 -134.949)"/>
            <path id="패스_230" d="M204.89 143.248l-4.991 8.489h-7.646l-2.491-4.758-1.342 2.156 2.736 4.651h9.834l4.992-8.647z" class="cls-2" transform="translate(-177.114 -132.639)"/>
        </g>
    </g>
</svg>
