<svg xmlns="http://www.w3.org/2000/svg" id="fldw_bi" width="190" height="20" viewBox="0 0 190 20">
    <defs>
        <style>
            .cls-2{fill:#fff}
        </style>
    </defs>
    <path id="Base" fill="none" d="M0 0H190V19.895H0z" transform="translate(0 0)"/>
    <g id="그룹_5473" transform="translate(-423.242 -1237.118)">
        <path id="패스_120" d="M441.454 1257.118h-2.613q-.685 0-.684-.654v-15.583a.3.3 0 0 0-.342-.342h-13.92a.577.577 0 0 1-.653-.653v-2.115a.577.577 0 0 1 .653-.653H456.4a.577.577 0 0 1 .653.653v2.115a.577.577 0 0 1-.653.653h-13.92q-.373 0-.373.342v15.583a.578.578 0 0 1-.653.654z" class="cls-2"/>
        <path id="패스_121" d="M539.087 1257.118h-24.233a5.2 5.2 0 0 1-3.795-1.307 5.023 5.023 0 0 1-1.337-3.763v-9.86a5.026 5.026 0 0 1 1.337-3.764 5.206 5.206 0 0 1 3.795-1.306h24.233a5.208 5.208 0 0 1 3.795 1.306 5.027 5.027 0 0 1 1.337 3.764v9.86a5.025 5.025 0 0 1-1.337 3.763 5.2 5.2 0 0 1-3.795 1.307zm-23.611-3.421h22.957a1.548 1.548 0 0 0 1.835-1.835v-9.486a1.549 1.549 0 0 0-1.835-1.836h-22.957a1.9 1.9 0 0 0-1.4.42 2.008 2.008 0 0 0-.4 1.416v9.486a2.007 2.007 0 0 0 .4 1.415 1.9 1.9 0 0 0 1.4.423z" class="cls-2" transform="translate(-50.615)"/>
        <path id="패스_122" d="M605.137 1257.118h-2.581a.578.578 0 0 1-.654-.654v-18.693a.578.578 0 0 1 .654-.653h2.333a1.181 1.181 0 0 1 .819.275l27.083 14.854h.124v-14.476a.578.578 0 0 1 .654-.653h2.581a.577.577 0 0 1 .653.653v18.693a.578.578 0 0 1-.653.654h-2.27a1.74 1.74 0 0 1-1-.343l-26.97-14.754h-.124v14.444a.578.578 0 0 1-.649.653z" class="cls-2" transform="translate(-104.567)"/>
        <path id="패스_123" d="M704.355 1263.125v-.415a.384.384 0 0 1 .435-.435h1.763a.384.384 0 0 1 .435.435v.166a1.454 1.454 0 0 0 .311 1.078 1.69 1.69 0 0 0 1.14.291h.975a1.2 1.2 0 0 0 1.451-1.472v-.249a1.039 1.039 0 0 0-.488-.922 2.561 2.561 0 0 0-1.213-.384 13.206 13.206 0 0 1-1.565-.238 10.135 10.135 0 0 1-1.566-.457 2.449 2.449 0 0 1-1.213-1.1 4.065 4.065 0 0 1-.487-2.105v-.726a3.347 3.347 0 0 1 .912-2.509 3.467 3.467 0 0 1 2.53-.892h2.074a3.5 3.5 0 0 1 2.55.892 3.347 3.347 0 0 1 .912 2.509v.394a.384.384 0 0 1-.435.435h-1.763a.384.384 0 0 1-.435-.435v-.125a1.492 1.492 0 0 0-.311-1.1 1.692 1.692 0 0 0-1.14-.29h-.809a1.567 1.567 0 0 0-1.151.322 1.892 1.892 0 0 0-.3 1.254v.394q0 .975 1.7 1.12a10.526 10.526 0 0 1 3.131.705 2.66 2.66 0 0 1 1.213 1.109 3.875 3.875 0 0 1 .487 2.042v.7a3.346 3.346 0 0 1-.912 2.509 3.464 3.464 0 0 1-2.529.892H707.8a3.464 3.464 0 0 1-2.529-.892 3.345 3.345 0 0 1-.916-2.501z" class="cls-2" transform="translate(-164.519 -9.408)"/>
        <path id="패스_124" d="M734.708 1266.526h-1.742q-.457 0-.456-.435V1255.7a.2.2 0 0 0-.229-.228h-2.363a.385.385 0 0 1-.436-.435v-1.41a.385.385 0 0 1 .436-.435h7.838a.385.385 0 0 1 .435.435v1.41a.385.385 0 0 1-.435.435h-2.364q-.248 0-.248.228v10.389a.385.385 0 0 1-.436.437z" class="cls-2" transform="translate(-179.238 -9.408)"/>
        <path id="패스_125" d="M754.428 1266.526h-1.991q-.373 0-.249-.435l3.276-12.463a.6.6 0 0 1 .622-.435h2.758a.558.558 0 0 1 .622.435l3.276 12.463q.124.435-.249.435H760.5a.407.407 0 0 1-.311-.094.7.7 0 0 1-.124-.342l-.581-2.281h-4.043l-.581 2.281a.637.637 0 0 1-.135.342.413.413 0 0 1-.297.094zm3.007-10.824l-1.493 5.993h3.069l-1.493-5.993z" class="cls-2" transform="translate(-192.509 -9.408)"/>
        <path id="패스_126" d="M784.33 1266.526h-1.763a.385.385 0 0 1-.435-.435v-12.463a.385.385 0 0 1 .435-.435h4.933a3.465 3.465 0 0 1 2.529.892 3.347 3.347 0 0 1 .913 2.509v1.618a3.027 3.027 0 0 1-1.846 3.11v.083l2.219 4.624q.187.5-.353.5h-1.679a1.279 1.279 0 0 1-.539-.083.613.613 0 0 1-.27-.352l-2.073-4.479h-1.389q-.249 0-.249.229v4.251a.385.385 0 0 1-.433.431zm.664-7.03h2.032a1.428 1.428 0 0 0 .975-.28 1.16 1.16 0 0 0 .311-.9v-1.616a1.225 1.225 0 0 0-.311-.933 1.394 1.394 0 0 0-.975-.29h-2.032a.2.2 0 0 0-.229.228v3.567a.2.2 0 0 0 .229.228z" class="cls-2" transform="translate(-210.053 -9.408)"/>
        <path id="패스_127" d="M812.057 1266.526h-1.742q-.456 0-.456-.435V1255.7a.2.2 0 0 0-.229-.228h-2.363a.385.385 0 0 1-.436-.435v-1.41a.385.385 0 0 1 .436-.435h7.838a.385.385 0 0 1 .435.435v1.41a.385.385 0 0 1-.435.435h-2.364q-.249 0-.249.228v10.389a.385.385 0 0 1-.435.437z" class="cls-2" transform="translate(-224.51 -9.408)"/>
        <path id="패스_128" d="M838.848 1266.526h-6.781a.385.385 0 0 1-.435-.435v-12.463a.385.385 0 0 1 .435-.435h6.781q.414 0 .415.435v1.41q0 .436-.415.435h-4.334q-.249 0-.249.228v2.7q0 .228.249.228h3.546a.384.384 0 0 1 .435.435v1.41a.385.385 0 0 1-.435.436h-3.546q-.249 0-.249.228v2.882q0 .228.249.228h4.334q.414 0 .415.435v1.411c0 .287-.139.432-.415.432z" class="cls-2" transform="translate(-239.025 -9.408)"/>
        <path id="패스_129" d="M857.779 1266.526h-1.763a.385.385 0 0 1-.435-.435v-12.463a.385.385 0 0 1 .435-.435h4.935a3.466 3.466 0 0 1 2.53.892 3.348 3.348 0 0 1 .912 2.509v1.618a3.027 3.027 0 0 1-1.845 3.11v.083l2.219 4.624q.187.5-.352.5h-1.68a1.28 1.28 0 0 1-.539-.083.612.612 0 0 1-.27-.352l-2.074-4.479h-1.389q-.249 0-.249.229v4.251a.385.385 0 0 1-.435.431zm.664-7.03h2.032a1.427 1.427 0 0 0 .975-.28 1.16 1.16 0 0 0 .311-.9v-1.616a1.226 1.226 0 0 0-.311-.933 1.394 1.394 0 0 0-.975-.29h-2.032a.2.2 0 0 0-.229.228v3.567a.2.2 0 0 0 .229.228z" class="cls-2" transform="translate(-253.042 -9.408)"/>
    </g>
</svg>
