<svg xmlns="http://www.w3.org/2000/svg" width="110" height="94" viewBox="0 0 110 94">
    <g transform="translate(-1395 -262)">
        <path d="M-1713.5 600h-78.572a3.927 3.927 0 0 1-3.929-3.917 3.927 3.927 0 0 1 3.929-3.917h7.858V517.75a11.656 11.656 0 0 1 3.452-8.309 11.726 11.726 0 0 1 8.334-3.441h39.285a11.727 11.727 0 0 1 8.334 3.441 11.655 11.655 0 0 1 3.452 8.309v23.5h7.857a11.727 11.727 0 0 1 8.334 3.441 11.655 11.655 0 0 1 3.452 8.308v19.583a3.927 3.927 0 0 0 3.928 3.917 3.927 3.927 0 0 0 3.928-3.917v-39.836a3.884 3.884 0 0 0-1.149-2.757l-9.487-9.468a3.888 3.888 0 0 1-1.151-2.772 3.886 3.886 0 0 1 1.151-2.77 3.909 3.909 0 0 1 2.779-1.148 3.911 3.911 0 0 1 2.78 1.148l9.5 9.458a11.62 11.62 0 0 1 2.552 3.812 11.591 11.591 0 0 1 .885 4.5v39.837a11.656 11.656 0 0 1-3.452 8.309 11.727 11.727 0 0 1-8.334 3.441 11.727 11.727 0 0 1-8.334-3.441 11.656 11.656 0 0 1-3.452-8.309V553a3.927 3.927 0 0 0-3.928-3.917h-7.857v43.083h7.857a3.927 3.927 0 0 1 3.928 3.917 3.927 3.927 0 0 1-3.93 3.917zm-32.444-23.679-.176 1.424.576.112a15.98 15.98 0 0 0 3.008.32 3.962 3.962 0 0 0 2.68-.856 3.255 3.255 0 0 0 .985-2.584 2.632 2.632 0 0 0-.672-1.993 5.681 5.681 0 0 0-2.312-1.088 9.215 9.215 0 0 1-2.12-.768 1.159 1.159 0 0 1-.48-1.048c0-.945.684-1.425 2.032-1.425.616 0 1.682.086 3.168.257l.144-1.44-.56-.1a17.7 17.7 0 0 0-2.912-.288 4.256 4.256 0 0 0-2.68.76 2.7 2.7 0 0 0-.968 2.247 2.8 2.8 0 0 0 .768 2.176 5.5 5.5 0 0 0 2.336 1.08 6.855 6.855 0 0 1 2.016.72 1.182 1.182 0 0 1 .447 1.016c0 1.168-.667 1.76-1.984 1.76a27.225 27.225 0 0 1-3.3-.288zm-16.72-9.456a3.872 3.872 0 0 0-3.352 1.344 7.46 7.46 0 0 0-.969 4.28 7.784 7.784 0 0 0 .944 4.312c.626.913 1.784 1.376 3.44 1.376.393 0 1.018-.042 1.913-.128a14.1 14.1 0 0 0 1.751-.24v-5.569h-3.12v1.568h1.361v2.672a7.8 7.8 0 0 1-1.744.144 2.343 2.343 0 0 1-2.168-.887 6.816 6.816 0 0 1-.536-3.225 6.334 6.334 0 0 1 .568-3.2 2.343 2.343 0 0 1 2.1-.864 26.994 26.994 0 0 1 3.472.256l.064-1.408-.56-.113a17.973 17.973 0 0 0-3.164-.319zm8.176 8.784h4.208l.592 2.352h1.792l-2.72-10.96h-3.536l-2.7 10.96h1.776l.591-2.351zm-16.94-61.9a5.006 5.006 0 0 0-5 5v25.333a5.006 5.006 0 0 0 5 5h37.285a5.005 5.005 0 0 0 5-5V518.75a5.006 5.006 0 0 0-5-5zm20.8 60.331h-3.5l1.36-5.552h.8l1.344 5.551z" transform="translate(3191 -244)" style="fill:#0070ed"/>
        <rect width="47.286" height="35.333" rx="5" transform="translate(1414.571 269.75)" style="fill:#fff"/>
        <g transform="translate(1038 -809)">
            <circle data-name="타원 65" cx="12.5" cy="12.5" r="12.5" transform="translate(388 1084)" style="fill:#383736"/>
            <path d="m928.479 508.132-5.409-2.847 5.415-10.942 5.422 10.946z" transform="translate(-528.129 592.853)" style="fill-rule:evenodd;fill:#fff"/>
            <path d="m928.484 545.775-5.409-7.063 5.409 2.968 5.428-2.968z" transform="translate(-528.128 560.033)" style="fill-rule:evenodd;fill:#fff"/>
        </g>
        <text transform="translate(1438 334)" style="font-size:16px;font-family:TitilliumWeb-SemiBold,Titillium Web;font-weight:600;letter-spacing:.05em;fill:#fff"><tspan x="-14.784" y="0">GAS</tspan></text>
    </g>
</svg>
