<svg xmlns="http://www.w3.org/2000/svg" id="ts_bi_c" width="284" height="30" viewBox="0 0 284 30">
    <defs>
        <style>
            .cls-2{fill:#fffd07}
        </style>
    </defs>
    <path id="Base" fill="none" d="M0 0H284V30H0z" transform="translate(0 0)"/>
    <g id="그룹_5472" transform="translate(-422.242 -1237.118)">
        <path id="패스_120" d="M450.56 1267.118h-3.919q-1.027 0-1.026-.98v-23.374a.454.454 0 0 0-.513-.513h-20.88a.865.865 0 0 1-.979-.979v-3.172a.866.866 0 0 1 .979-.98h48.758a.866.866 0 0 1 .98.98v3.173a.866.866 0 0 1-.98.979H452.1q-.56 0-.56.513v23.374a.866.866 0 0 1-.98.979z" class="cls-2"/>
        <path id="패스_121" d="M553.769 1267.118H517.42a7.8 7.8 0 0 1-5.692-1.96 7.535 7.535 0 0 1-2.006-5.645v-14.789a7.539 7.539 0 0 1 2.006-5.646 7.809 7.809 0 0 1 5.692-1.959h36.349a7.812 7.812 0 0 1 5.692 1.959 7.541 7.541 0 0 1 2.006 5.646v14.789a7.537 7.537 0 0 1-2.006 5.645 7.808 7.808 0 0 1-5.692 1.96zm-35.416-5.132h34.436a2.323 2.323 0 0 0 2.753-2.753V1245a2.323 2.323 0 0 0-2.753-2.753h-34.436a2.847 2.847 0 0 0-2.1.63 3.011 3.011 0 0 0-.606 2.123v14.23a3.01 3.01 0 0 0 .606 2.123 2.847 2.847 0 0 0 2.1.633z" class="cls-2" transform="translate(-32.683)"/>
        <path id="패스_122" d="M606.754 1267.118h-3.872a.867.867 0 0 1-.98-.98V1238.1a.866.866 0 0 1 .98-.98h3.5a1.77 1.77 0 0 1 1.229.413l40.625 22.28h.186V1238.1a.866.866 0 0 1 .98-.98h3.872a.866.866 0 0 1 .98.98v28.04a.866.866 0 0 1-.98.98h-3.405a2.611 2.611 0 0 1-1.494-.515l-40.455-22.132h-.187v21.666a.866.866 0 0 1-.979.979z" class="cls-2" transform="translate(-67.521)"/>
        <path id="패스_123" d="M704.365 1268.092v-.622a.576.576 0 0 1 .653-.652h2.644a.577.577 0 0 1 .653.652v.25a2.181 2.181 0 0 0 .467 1.617 2.534 2.534 0 0 0 1.711.436h1.463a1.807 1.807 0 0 0 2.177-2.208v-.374a1.559 1.559 0 0 0-.732-1.383 3.842 3.842 0 0 0-1.82-.576 19.809 19.809 0 0 1-2.348-.358 15.206 15.206 0 0 1-2.349-.685 3.674 3.674 0 0 1-1.819-1.648 6.1 6.1 0 0 1-.731-3.158v-1.089a5.02 5.02 0 0 1 1.368-3.763 5.2 5.2 0 0 1 3.8-1.338h3.11a5.244 5.244 0 0 1 3.825 1.338 5.02 5.02 0 0 1 1.368 3.763v.592a.577.577 0 0 1-.653.653H714.5a.576.576 0 0 1-.653-.653v-.187a2.237 2.237 0 0 0-.467-1.649 2.538 2.538 0 0 0-1.711-.435h-1.214a2.351 2.351 0 0 0-1.726.483 2.838 2.838 0 0 0-.451 1.881v.591q0 1.463 2.55 1.68a15.789 15.789 0 0 1 4.7 1.058 3.99 3.99 0 0 1 1.82 1.663 5.812 5.812 0 0 1 .73 3.064v1.057a5.019 5.019 0 0 1-1.369 3.764 5.2 5.2 0 0 1-3.794 1.338h-3.391a5.2 5.2 0 0 1-3.794-1.338 5.017 5.017 0 0 1-1.365-3.764z" class="cls-2" transform="translate(-106.233 -6.075)"/>
        <path id="패스_124" d="M737.321 1273.193h-2.613q-.685 0-.684-.653v-15.583a.3.3 0 0 0-.343-.342h-3.545a.578.578 0 0 1-.654-.653v-2.115a.578.578 0 0 1 .654-.653h11.757a.577.577 0 0 1 .653.653v2.115a.577.577 0 0 1-.653.653h-3.546q-.372 0-.373.342v15.583a.578.578 0 0 1-.653.653z" class="cls-2" transform="translate(-115.737 -6.075)"/>
        <path id="패스_125" d="M755.563 1273.193h-2.986q-.56 0-.373-.653l4.914-18.694a.893.893 0 0 1 .933-.653h4.137a.838.838 0 0 1 .933.653l4.914 18.694q.187.652-.373.653h-2.986a.611.611 0 0 1-.467-.141 1.058 1.058 0 0 1-.187-.513l-.871-3.421h-6.065l-.871 3.421a.955.955 0 0 1-.2.513.619.619 0 0 1-.452.141zm4.51-16.237l-2.24 8.989h4.6l-2.24-8.989z" class="cls-2" transform="translate(-124.306 -6.075)"/>
        <path id="패스_126" d="M785.428 1273.193h-2.644a.577.577 0 0 1-.653-.653v-18.694a.577.577 0 0 1 .653-.653h7.4a5.2 5.2 0 0 1 3.794 1.338 5.02 5.02 0 0 1 1.369 3.763v2.427q0 3.514-2.769 4.666v.124l3.329 6.936q.28.747-.529.747h-2.519a1.917 1.917 0 0 1-.809-.125.919.919 0 0 1-.4-.528l-3.11-6.719h-2.083q-.374 0-.374.343v6.376a.577.577 0 0 1-.655.652zm1-10.545h3.048a2.142 2.142 0 0 0 1.463-.419 1.74 1.74 0 0 0 .467-1.353v-2.427a1.838 1.838 0 0 0-.467-1.4 2.092 2.092 0 0 0-1.463-.435h-3.048a.3.3 0 0 0-.343.342v5.35a.3.3 0 0 0 .339.342z" class="cls-2" transform="translate(-135.635 -6.075)"/>
        <path id="패스_127" d="M814.67 1273.193h-2.613q-.684 0-.684-.653v-15.583a.3.3 0 0 0-.343-.342h-3.545a.577.577 0 0 1-.654-.653v-2.115a.578.578 0 0 1 .654-.653h11.757a.578.578 0 0 1 .653.653v2.115a.577.577 0 0 1-.653.653H815.7q-.373 0-.373.342v15.583a.577.577 0 0 1-.657.653z" class="cls-2" transform="translate(-144.969 -6.075)"/>
        <path id="패스_128" d="M842.456 1273.193h-10.171a.577.577 0 0 1-.653-.653v-18.694a.577.577 0 0 1 .653-.653h10.172q.621 0 .622.653v2.115q0 .654-.622.653h-6.5q-.374 0-.374.342V1261q0 .342.374.343h5.319a.577.577 0 0 1 .652.653v2.115a.577.577 0 0 1-.652.654h-5.319q-.374 0-.374.342v4.323q0 .342.374.342h6.5q.621 0 .622.652v2.116q-.001.652-.623.653z" class="cls-2" transform="translate(-154.342 -6.075)"/>
        <path id="패스_129" d="M858.878 1273.193h-2.644a.577.577 0 0 1-.653-.653v-18.694a.577.577 0 0 1 .653-.653h7.4a5.2 5.2 0 0 1 3.795 1.338 5.023 5.023 0 0 1 1.369 3.763v2.427q0 3.514-2.768 4.666v.124l3.328 6.936q.28.747-.529.747h-2.519a1.919 1.919 0 0 1-.809-.125.918.918 0 0 1-.4-.528l-3.11-6.719H859.9q-.373 0-.374.343v6.376a.577.577 0 0 1-.648.652zm1-10.545h3.048a2.142 2.142 0 0 0 1.462-.419 1.74 1.74 0 0 0 .467-1.353v-2.427a1.838 1.838 0 0 0-.467-1.4 2.091 2.091 0 0 0-1.462-.435h-3.048a.3.3 0 0 0-.343.342v5.35a.3.3 0 0 0 .338.342z" class="cls-2" transform="translate(-163.393 -6.075)"/>
    </g>
</svg>
