<svg id="Twitter-s-icon" xmlns="http://www.w3.org/2000/svg" width="20" height="20" viewBox="0 0 20 20">
  <defs>
    <style>
      .cls-1 {
        fill: none;
      }

      .cls-2 {
        fill: #354052;
      }
    </style>
  </defs>
  <rect id="Base" class="cls-1" width="20" height="20"/>
  <path id="Twitter" class="cls-2" d="M16,1.538a6.517,6.517,0,0,1-1.885.517A3.294,3.294,0,0,0,15.558.24a6.575,6.575,0,0,1-2.085.8A3.286,3.286,0,0,0,7.879,4.03,9.322,9.322,0,0,1,1.113.6,3.287,3.287,0,0,0,2.129,4.983,3.273,3.273,0,0,1,.643,4.572c0,.013,0,.028,0,.041A3.284,3.284,0,0,0,3.275,7.832a3.3,3.3,0,0,1-1.482.056,3.287,3.287,0,0,0,3.066,2.279A6.586,6.586,0,0,1,.783,11.573,6.635,6.635,0,0,1,0,11.526,9.3,9.3,0,0,0,5.032,13a9.275,9.275,0,0,0,9.34-9.338c0-.142,0-.284-.01-.425A6.658,6.658,0,0,0,16,1.538Z" transform="translate(2 4)"/>
</svg>
