<?xml version="1.0" encoding="utf-8"?>
<!-- Generator: Adobe Illustrator 23.0.3, SVG Export Plug-In . SVG Version: 6.00 Build 0)  -->
<svg version="1.1" id="레이어_1" xmlns="http://www.w3.org/2000/svg" xmlns:xlink="http://www.w3.org/1999/xlink" x="0px"
	 y="0px" viewBox="0 0 16 16" style="enable-background:new 0 0 16 16;" xml:space="preserve">
<style type="text/css">
	.st0{fill:#2A72E5;}
</style>
<g>
	<path class="st0" d="M0.21,7.3c-0.05,0.16-0.1,0.37-0.14,0.53c0.04-0.14,0.09-0.33,0.4-0.53c0.39-0.52,0.99-0.85,1.67-0.86
		c0,0,0,0,0-0.01C0.92,6.12,0.56,6.53,0.46,6.72C0.3,7.06,0.27,7.12,0.21,7.3"/>
	<path class="st0" d="M1.43,5.41L1.25,5.59c0.2-0.17,0.54-0.14,1.07,0.1c0.1-0.19,0.24-0.38,0.41-0.55
		c-0.25-0.17-0.5-0.33-0.66-0.25C1.72,5.15,1.62,5.22,1.43,5.41"/>
	<path class="st0" d="M3.89,3.95C3.71,4.02,3.46,4.12,3.28,4.2c0.04,0.02,0.16,0.19,0.26,0.32C3.8,4.38,4.09,4.24,4.4,4.12
		C4.34,3.92,4.33,3.81,4.39,3.78C4.24,3.83,4.04,3.9,3.89,3.95"/>
	<path class="st0" d="M6.89,3.32C6.61,3.35,6.23,3.39,5.95,3.43C5.8,3.47,5.74,3.52,5.67,3.75c0.37-0.08,0.75-0.14,1.16-0.18
		c0.11-0.13,0.21-0.25,0.5-0.28L6.89,3.32"/>
	<path class="st0" d="M10.02,3.42C9.76,3.38,9.4,3.34,9.14,3.32c-0.26-0.01-0.45,0-0.75,0.2C8.8,3.52,9.21,3.56,9.6,3.61
		c0.19-0.08,0.48-0.19,0.94-0.1C10.38,3.48,10.18,3.44,10.02,3.42"/>
	<path class="st0" d="M12.86,4.25c-0.2-0.09-0.46-0.2-0.66-0.28c-0.48-0.16-0.79-0.18-1.24-0.07c0.34,0.1,0.66,0.21,0.95,0.34
		c0.29-0.03,0.83-0.09,1.55,0.33C13.29,4.47,13.05,4.33,12.86,4.25"/>
	<path class="st0" d="M15.73,7.12c-0.19-0.47-0.26-0.61-0.56-1.05l-0.14-0.19c-0.65-0.76-1.29-1.08-2.15-1.09
		c0.22,0.16,0.4,0.33,0.55,0.52c1.43,0.17,2.44,1.4,2.57,3.14C15.97,8.11,15.94,7.65,15.73,7.12"/>
	<path class="st0" d="M13.81,12.49c0.37-0.27,0.45-0.32,0.76-0.61c0.09-0.09,0.21-0.21,0.29-0.3c1.73-2.1,0.86-5.05-1.06-5.55
		c0.02,0.09,0.04,0.19,0.04,0.28c0,0.02,0,0.03,0,0.05c0,0.09-0.01,0.19-0.03,0.28c2.06,0.88,1.94,4.56-0.19,5.97L13.81,12.49"/>
	<path class="st0" d="M11.17,13.63c0.26-0.07,0.62-0.18,0.88-0.27c2.59-1.04,2.92-5.06,1.43-5.99c-0.14,0.18-0.32,0.36-0.53,0.52
		c1.27,1.34,0.09,5.23-2.23,5.84L11.17,13.63"/>
	<path class="st0" d="M8.14,14.02c0.25-0.01,0.57-0.02,0.82-0.03c2.17-0.27,3.62-4.29,3.06-5.53c-0.29,0.13-0.6,0.25-0.94,0.36
		c0.03,1.59-2.04,5.21-3.58,5.2C7.69,14.01,7.95,14.02,8.14,14.02"/>
	<path class="st0" d="M4.98,13.68c0.24,0.05,0.57,0.12,0.81,0.17c0.91,0.05,3.12-3.08,3.93-4.72c-0.39,0.06-0.79,0.1-1.21,0.12
		c-0.64,0.65-2.33,2.7-2.67,3.1c-0.86,1.04-1.18,1.24-1.3,1.22L4.98,13.68"/>
	<path class="st0" d="M2.31,12.59c0.45,0.27,0.49,0.29,0.83,0.46l0.02,0.01c0.04-0.26,2.14-2.89,3.79-3.85
		c-0.4-0.03-0.79-0.09-1.16-0.16c-1.97,0.81-3.95,3.19-3.6,3.47L2.31,12.59"/>
	<path class="st0" d="M0.84,11.22c0.1,0.12,0.23,0.29,0.33,0.41C0.7,10.96,2.55,9.15,4.5,8.69C4.18,8.58,3.89,8.45,3.63,8.3
		c-1.8,0.24-3.48,1.55-3.11,2.42C0.61,10.88,0.73,11.08,0.84,11.22"/>
	<path class="st0" d="M0,8.74C0,8.77,0,8.8,0,8.82c0.01,0.15,0.03,0.35,0.05,0.5c-0.07-0.97,1.39-1.63,2.74-1.62
		C2.61,7.53,2.46,7.35,2.35,7.16C1.21,7.04,0.59,7.35,0.27,7.63C0.1,7.96,0,8.34,0,8.74"/>
</g>
</svg>
