<svg xmlns="http://www.w3.org/2000/svg" id="TON-symbol" width="36" height="24.176" viewBox="0 0 36 24.176">
    <defs>
        <style>
            .cls-1{fill:#fff}
        </style>
    </defs>
    <g id="그룹_5394">
        <path id="패스_45" d="M763.858 694.131c-.111.353-.248.829-.337 1.191a1.793 1.793 0 0 1 .924-1.169 4.791 4.791 0 0 1 3.8-1.85v-.014c-2.729-.785-3.576.113-3.814.536a9.281 9.281 0 0 0-.572 1.307" class="cls-1" transform="translate(-763.303 -685.459)"/>
        <path id="패스_46" d="M792.715 659.44l-.4.385c.462-.379 1.224-.29 2.4.278a5.093 5.093 0 0 1 .956-1.226c-.556-.406-1.119-.759-1.476-.593a12.729 12.729 0 0 0-1.474 1.156" class="cls-1" transform="translate(-789.331 -654.962)"/>
        <path id="패스_47" d="M841.9 634.507c-.417.153-.972.357-1.384.526a5.018 5.018 0 0 1 .579.743 13.709 13.709 0 0 1 1.936-.862c-.111-.466-.139-.7 0-.758-.34.1-.8.232-1.134.351" class="cls-1" transform="translate(-832.911 -633.189)"/>
        <path id="패스_48" d="M899.541 624.124c-.634.051-1.479.13-2.111.2-.33.082-.477.2-.64.7a23.911 23.911 0 0 1 2.607-.348 1.422 1.422 0 0 1 1.133-.6l-.99.044" class="cls-1" transform="translate(-883.781 -624.08)"/>
        <path id="패스_49" d="M964.2 625.841c-.593-.09-1.384-.2-1.98-.274a2.538 2.538 0 0 0-1.7.4 25.764 25.764 0 0 1 2.713.285 3.4 3.4 0 0 1 2.128-.186c-.35-.069-.814-.171-1.165-.228" class="cls-1" transform="translate(-941.393 -625.416)"/>
        <path id="패스_50" d="M1025.007 639.984c-.439-.2-1.027-.472-1.473-.657a4.551 4.551 0 0 0-2.776-.227 16.835 16.835 0 0 1 2.121.816 5.17 5.17 0 0 1 3.467.811c-.4-.23-.929-.542-1.339-.743" class="cls-1" transform="translate(-995.85 -637.55)"/>
        <path id="패스_51" d="M1071.38 667.437a10.087 10.087 0 0 0-1.218-2.4l-.315-.433a6.023 6.023 0 0 0-4.77-2.567 6.841 6.841 0 0 1 1.216 1.19c3.206.454 5.413 3.273 5.622 7.182a9.994 9.994 0 0 0-.536-2.976" class="cls-1" transform="translate(-1035.916 -658.397)"/>
        <path id="패스_52" d="M1078.928 706.143a13.862 13.862 0 0 0 1.738-1.33c.2-.2.479-.462.676-.67 4-4.635 2.181-11.323-2.112-12.535a3.293 3.293 0 0 1 .074.641v.115a3.239 3.239 0 0 1-.075.632c4.594 2.073 4.142 10.348-.732 13.414l.431-.267" class="cls-1" transform="translate(-1048.047 -685.125)"/>
        <path id="패스_53" d="M1010.789 736.914c.6-.154 1.393-.376 1.985-.558 5.879-2.21 6.818-11.235 3.517-13.406a6.554 6.554 0 0 1-1.214 1.154c2.792 3.08-.069 11.779-5.31 13.028l1.022-.218" class="cls-1" transform="translate(-985.914 -713.459)"/>
        <path id="패스_54" d="M935.693 759.939c.555-.005 1.294-.013 1.848-.035 4.884-.5 8.36-9.475 7.151-12.281a16.337 16.337 0 0 1-2.122.754c-.011 3.587-4.84 11.606-8.3 11.514.428.016 1 .047 1.427.048" class="cls-1" transform="translate(-917.659 -735.763)"/>
        <path id="패스_55" d="M866.3 771.981c.545.132 1.274.3 1.823.412 2.038.149 7.169-6.769 9.064-10.427a25.591 25.591 0 0 1-2.72.206c-1.479 1.436-5.382 5.953-6.149 6.844-1.976 2.294-2.709 2.729-2.977 2.69l.959.274" class="cls-1" transform="translate(-855.346 -748.73)"/>
        <path id="패스_56" d="M810.1 765.945a16.364 16.364 0 0 0 1.847 1.07l.052.026c.11-.584 4.966-6.385 8.716-8.462a24.176 24.176 0 0 1-2.6-.424c-4.479 1.718-9.052 6.971-8.265 7.616l.252.174" class="cls-1" transform="translate(-805.102 -745.285)"/>
        <path id="패스_57" d="M772.167 746.042c.212.285.5.664.724.935-1.009-1.538 3.244-5.519 7.646-6.448a14.207 14.207 0 0 1-1.936-.918c-4.05.44-7.905 3.311-7.112 5.3.194.348.454.812.678 1.134" class="cls-1" transform="translate(-770.412 -728.52)"/>
        <path id="패스_58" d="M761.25 714.742v.194c.017.336.046.785.082 1.119-.109-2.184 3.207-3.595 6.25-3.5a5.3 5.3 0 0 1-.957-1.256c-2.573-.33-3.981.333-4.708.948a5.322 5.322 0 0 0-.667 2.49" class="cls-1" transform="translate(-761.249 -702.851)"/>
    </g>
</svg>
