<svg xmlns="http://www.w3.org/2000/svg" width="50" height="50" viewBox="0 0 50 50">
    <defs>
        <style>
            .cls-2{fill:#2a72e5}
        </style>
    </defs>
    <g id="TOS_symbol" transform="translate(.4 1)">
        <path id="Base" transform="translate(-.4 -1)" style="fill:#fff" d="M0 0h50v50H0z"/>
        <g id="TOS" transform="translate(-1.4 -1.388)">
            <path id="패스_231" data-name="패스 231" class="cls-2" d="M61.085 20.837 57.868 26h3.148l2.762-5.3-5.825-9.309H47.164l-1.237 2.143h10.862z" transform="translate(-29.164)"/>
            <path id="패스_232" data-name="패스 232" class="cls-2" d="m29.452 59.56 6.2.072-1.26-2.382-5.981.025-5.483 9.413 5.567 9.642H31.1l-5.66-9.3z" transform="translate(-10.493 -37.229)"/>
            <path id="패스_233" data-name="패스 233" class="cls-2" d="M105.806 28.119h-6.287l1.213 2.317h5.981l5.527-9.4-5.572-9.651h-2.712l5.764 9.215z" transform="translate(-72.668)"/>
            <path id="패스_234" data-name="패스 234" class="cls-2" d="m25.171 36.275 2.795 5.286 1.481-2.378-3.032-5.156H15.54L10 43.622l1.213 2.1 5.487-9.411z" transform="translate(0 -18.378)"/>
            <path id="패스_235" data-name="패스 235" class="cls-2" d="m51.928 86.033 3.2-5.143-3.041-.035-2.828 5.27 5.7 9.367h10.91l1.243-2.153H56.225z" transform="translate(-31.871 -56.391)"/>
            <path id="패스_236" data-name="패스 236" class="cls-2" d="m94.836 73.863-5.536 9.41h-8.471L78.067 78l-1.488 2.389 3.032 5.156h10.9l5.534-9.586z" transform="translate(-54.046 -50.715)"/>
        </g>
    </g>
</svg>
