<svg xmlns="http://www.w3.org/2000/svg" width="50" height="50" viewBox="0 0 50 50">
    <defs>
        <style>
            .cls-3{fill:#fff}
        </style>
    </defs>
    <g id="WTON_symbol" transform="translate(-388 -1084)">
        <path id="Base" transform="translate(388 1084)" style="fill:#007aff" d="M0 0h50v50H0z"/>
        <g id="tokamak1" transform="translate(396 1092)">
            <path id="Base-2" data-name="Base" style="fill:none" d="M0 0h35v35H0z"/>
            <g id="tokamak1-2" data-name="tokamak1" transform="translate(-41.729 -36.504)">
                <g id="그룹_331" data-name="그룹 331" transform="translate(41.729 42.504)">
                    <path id="패스_201" data-name="패스 201" class="cls-3" d="M43.579 90.093a21.54 21.54 0 0 0-.328 1.157 1.744 1.744 0 0 1 .9-1.137 4.658 4.658 0 0 1 3.694-1.8V88.3c-2.653-.763-3.477.11-3.708.521a9 9 0 0 0-.556 1.27" transform="translate(-43.039 -81.664)"/>
                    <path id="패스_202" data-name="패스 202" class="cls-3" d="m62.934 66.559-.39.374c.449-.368 1.189-.282 2.329.27a4.957 4.957 0 0 1 .93-1.192c-.54-.395-1.088-.738-1.435-.576a12.361 12.361 0 0 0-1.433 1.124" transform="translate(-59.645 -62.207)"/>
                    <path id="패스_203" data-name="패스 203" class="cls-3" d="M96.192 49.6c-.4.149-.945.347-1.346.511a4.908 4.908 0 0 1 .563.722 13.342 13.342 0 0 1 1.882-.838c-.108-.453-.136-.679 0-.737-.331.1-.775.226-1.1.341" transform="translate(-87.449 -48.315)"/>
                    <path id="패스_204" data-name="패스 204" class="cls-3" d="M135.226 42.547a61.38 61.38 0 0 0-2.052.2c-.321.08-.463.195-.622.678a23.217 23.217 0 0 1 2.535-.339 1.383 1.383 0 0 1 1.1-.582l-.962.043" transform="translate(-119.904 -42.504)"/>
                    <path id="패스_205" data-name="패스 205" class="cls-3" d="M178.829 43.769c-.576-.088-1.346-.2-1.925-.266a2.467 2.467 0 0 0-1.65.392 25.012 25.012 0 0 1 2.638.277 3.3 3.3 0 0 1 2.069-.181c-.34-.067-.791-.166-1.133-.222" transform="translate(-156.66 -43.356)"/>
                    <path id="패스_206" data-name="패스 206" class="cls-3" d="M219.75 53.464c-.427-.2-1-.459-1.432-.639a4.425 4.425 0 0 0-2.7-.22 16.374 16.374 0 0 1 2.062.793 5.03 5.03 0 0 1 3.371.788c-.388-.224-.9-.526-1.3-.722" transform="translate(-191.402 -51.098)"/>
                    <path id="패스_207" data-name="패스 207" class="cls-3" d="M251.444 73.187a9.818 9.818 0 0 0-1.184-2.33l-.306-.42a5.856 5.856 0 0 0-4.637-2.5A6.643 6.643 0 0 1 246.5 69.1c3.117.441 5.263 3.181 5.466 6.981a9.717 9.717 0 0 0-.521-2.893" transform="translate(-216.964 -64.399)"/>
                    <path id="패스_208" data-name="패스 208" class="cls-3" d="M254.727 101.882a13.482 13.482 0 0 0 1.689-1.293c.2-.194.466-.449.657-.652 3.888-4.506 2.121-11.007-2.054-12.185a3.181 3.181 0 0 1 .072.623v.112a3.154 3.154 0 0 1-.073.614c4.466 2.016 4.027 10.059-.711 13.04l.419-.259" transform="translate(-224.703 -81.451)"/>
                    <path id="패스_209" data-name="패스 209" class="cls-3" d="M209.248 122.328c.581-.15 1.354-.366 1.93-.542 5.716-2.148 6.629-10.921 3.419-13.032a6.366 6.366 0 0 1-1.181 1.121c2.714 2.994-.067 11.45-5.162 12.664l.994-.212" transform="translate(-185.063 -99.528)"/>
                    <path id="패스_210" data-name="패스 210" class="cls-3" d="M159.05 137.259a67.779 67.779 0 0 0 1.8-.034c4.749-.491 8.128-9.21 6.952-11.938a15.882 15.882 0 0 1-2.063.733c-.011 3.487-4.706 11.282-8.073 11.193.416.015.971.045 1.387.046" transform="translate(-141.518 -113.758)"/>
                    <path id="패스_211" data-name="패스 211" class="cls-3" d="M112.408 144.633c.53.128 1.239.292 1.772.4 1.981.145 6.97-6.58 8.812-10.135a24.817 24.817 0 0 1-2.645.2c-1.438 1.4-5.232 5.787-5.978 6.653-1.921 2.23-2.634 2.653-2.894 2.615l.933.267" transform="translate(-101.762 -122.031)"/>
                    <path id="패스_212" data-name="패스 212" class="cls-3" d="M74.565 139.917a15.91 15.91 0 0 0 1.8 1.04l.051.025c.107-.568 4.828-6.207 8.473-8.225a23.556 23.556 0 0 1-2.53-.412c-4.355 1.67-8.8 6.776-8.035 7.4l.245.169" transform="translate(-69.707 -119.833)"/>
                    <path id="패스_213" data-name="패스 213" class="cls-3" d="M49.281 126.169c.207.277.485.645.7.909-.981-1.495 3.154-5.365 7.434-6.268a13.814 13.814 0 0 1-1.883-.892c-3.938.428-7.686 3.219-6.914 5.149.188.338.442.789.659 1.1" transform="translate(-47.575 -109.137)"/>
                    <path id="패스_214" data-name="패스 214" class="cls-3" d="M41.73 104.318v.189c.017.327.045.763.08 1.088-.106-2.123 3.118-3.494 6.077-3.4a5.158 5.158 0 0 1-.93-1.221c-2.5-.321-3.87.324-4.577.921a5.171 5.171 0 0 0-.649 2.421" transform="translate(-41.729 -92.76)"/>
                </g>
            </g>
        </g>
    </g>
</svg>
