<svg xmlns="http://www.w3.org/2000/svg" width="20" height="20" viewBox="0 0 20 20">
    <path style="fill:none" d="M0 0h20v20H0z"/>
    <g data-name="그룹 331">
        <path data-name="패스 201" d="M43.438 89.2c-.062.2-.138.461-.187.661a1 1 0 0 1 .513-.649 2.662 2.662 0 0 1 2.111-1.028v-.008c-1.516-.436-1.987.063-2.119.3a5.14 5.14 0 0 0-.318.726" transform="translate(-43.13 -80.951)" style="fill:#2a72e5"/>
        <path data-name="패스 202" d="m62.767 66.06-.223.214c.257-.21.68-.161 1.331.154a2.833 2.833 0 0 1 .531-.681c-.309-.226-.622-.422-.82-.329a7.063 7.063 0 0 0-.819.642" transform="translate(-60.888 -60.144)" style="fill:#2a72e5"/>
        <path data-name="패스 203" d="M95.615 49.45c-.231.085-.54.2-.769.292a2.8 2.8 0 0 1 .322.413 7.624 7.624 0 0 1 1.076-.479c-.062-.259-.077-.388 0-.421-.189.058-.443.129-.63.195" transform="translate(-90.619 -45.289)" style="fill:#2a72e5"/>
        <path data-name="패스 204" d="M134.08 42.528c-.352.029-.822.072-1.173.114-.184.046-.265.111-.355.388a13.268 13.268 0 0 1 1.448-.194.79.79 0 0 1 .629-.332l-.55.024" transform="translate(-125.324 -39.075)" style="fill:#2a72e5"/>
        <path data-name="패스 205" d="M177.3 43.651a36.8 36.8 0 0 0-1.1-.152 1.41 1.41 0 0 0-.943.224 14.292 14.292 0 0 1 1.507.158 1.887 1.887 0 0 1 1.182-.1c-.194-.038-.452-.1-.647-.127" transform="translate(-164.629 -39.986)" style="fill:#2a72e5"/>
        <path data-name="패스 206" d="M217.98 53.046a25.831 25.831 0 0 0-.818-.365 2.528 2.528 0 0 0-1.542-.126 9.357 9.357 0 0 1 1.178.453 2.874 2.874 0 0 1 1.926.45c-.222-.128-.516-.3-.744-.413" transform="translate(-201.781 -48.265)" style="fill:#2a72e5"/>
        <path data-name="패스 207" d="M248.818 70.939a5.611 5.611 0 0 0-.677-1.331l-.175-.24a3.346 3.346 0 0 0-2.65-1.426 3.8 3.8 0 0 1 .675.661c1.781.252 3.007 1.818 3.123 3.989a5.552 5.552 0 0 0-.3-1.653" transform="translate(-229.116 -62.488)" style="fill:#2a72e5"/>
        <path data-name="패스 208" d="M254.547 95.826a7.7 7.7 0 0 0 .965-.739c.113-.111.266-.256.376-.372 2.221-2.575 1.212-6.289-1.174-6.963a1.818 1.818 0 0 1 .041.356v.064a1.8 1.8 0 0 1-.042.351c2.552 1.152 2.3 5.748-.406 7.451l.239-.148" transform="translate(-237.391 -80.722)" style="fill:#2a72e5"/>
        <path data-name="패스 209" d="M208.822 116.511c.332-.086.774-.209 1.1-.31 3.266-1.228 3.788-6.241 1.954-7.447a3.637 3.637 0 0 1-.675.641c1.551 1.711-.038 6.543-2.95 7.237l.568-.121" transform="translate(-195.002 -100.053)" style="fill:#2a72e5"/>
        <path data-name="패스 210" d="M158.456 132.128c.308 0 .719-.007 1.026-.019 2.713-.28 4.644-5.263 3.972-6.822a9.074 9.074 0 0 1-1.179.419c-.006 1.993-2.689 6.447-4.613 6.4.238.009.555.026.793.027" transform="translate(-148.437 -115.27)" style="fill:#2a72e5"/>
        <path data-name="패스 211" d="M112.008 140.461c.3.073.708.167 1.013.229 1.132.083 3.983-3.76 5.036-5.792a14.178 14.178 0 0 1-1.511.114c-.822.8-2.99 3.307-3.416 3.8-1.1 1.274-1.505 1.516-1.654 1.494l.533.152" transform="translate(-105.925 -124.116)" style="fill:#2a72e5"/>
        <path data-name="패스 212" d="M74.423 136.672a9.092 9.092 0 0 0 1.026.594l.029.014a17.876 17.876 0 0 1 4.842-4.7 13.458 13.458 0 0 1-1.446-.236c-2.489.954-5.029 3.872-4.591 4.23l.14.1" transform="translate(-71.647 -121.766)" style="fill:#2a72e5"/>
        <path data-name="패스 213" d="M48.955 123.49c.118.159.277.369.4.519-.561-.854 1.8-3.066 4.248-3.582a7.892 7.892 0 0 1-1.076-.51c-2.25.245-4.392 1.839-3.951 2.942.108.193.252.451.377.63" transform="translate(-47.98 -110.328)" style="fill:#2a72e5"/>
        <path data-name="패스 214" d="M41.73 102.85v.108c.01.187.025.436.046.622-.06-1.213 1.781-2 3.472-1.942a2.947 2.947 0 0 1-.532-.7 3.25 3.25 0 0 0-2.616.526 2.955 2.955 0 0 0-.371 1.383" transform="translate(-41.729 -92.816)" style="fill:#2a72e5"/>
    </g>
</svg>
