<svg xmlns="http://www.w3.org/2000/svg" width="20" height="20" viewBox="0 0 20 20">
    <path style="fill:none" d="M0 0h20v20H0z"/>
    <g data-name="그룹 6751">
        <path data-name="패스 231" d="m54.453 16.7-1.81 2.907h1.771l1.553-2.984-3.276-5.236h-6.069l-.7 1.206h6.11z" transform="translate(-41.122 -9.388)" style="fill:#2a72e5"/>
        <path data-name="패스 232" d="m26.6 58.549 3.487.041-.709-1.34-3.365.014-3.084 5.295 3.131 5.424h1.468l-3.183-5.232z" transform="translate(-20.558 -50.394)" style="fill:#2a72e5"/>
        <path data-name="패스 233" d="M103.055 20.8h-3.536l.683 1.3h3.365l3.109-5.288-3.134-5.429h-1.526l3.242 5.182z" transform="translate(-89.041 -9.388)" style="fill:#2a72e5"/>
        <path data-name="패스 234" d="m18.533 35.292 1.572 2.973.833-1.337-1.706-2.9h-6.116L10 39.424l.682 1.182 3.084-5.294z" transform="translate(-9 -29.63)" style="fill:#2a72e5"/>
        <path data-name="패스 235" d="m50.762 83.768 1.8-2.893-1.711-.02-1.591 2.964 3.206 5.269H58.6l.7-1.211h-6.122z" transform="translate(-44.105 -71.499)" style="fill:#2a72e5"/>
        <path data-name="패스 236" d="m86.849 73.863-3.112 5.293h-4.768l-1.553-2.966-.837 1.344 1.706 2.9h6.132l3.113-5.392z" transform="translate(-68.529 -65.248)" style="fill:#2a72e5"/>
    </g>
</svg>
