<svg xmlns="http://www.w3.org/2000/svg" width="20" height="20">
    <path style="fill:none" d="M0 0h20v20H0z"/>
    <path data-name="패스 32" d="M187.924-58.485a8.467 8.467 0 0 0-4.811-1.8l-.24.275a11.394 11.394 0 0 1 4.264 2.174 13.987 13.987 0 0 0-5.155-1.644 14.5 14.5 0 0 0-3.459.035 1.665 1.665 0 0 0-.291.034 12.852 12.852 0 0 0-3.886 1.079c-.634.291-1.01.5-1.01.5a11.551 11.551 0 0 1 4.5-2.243l-.171-.206a8.467 8.467 0 0 0-4.811 1.8 22.924 22.924 0 0 0-2.466 9.982 6.211 6.211 0 0 0 5.224 2.6s.633-.77 1.146-1.421a5.325 5.325 0 0 1-3-2.02s.171.12.48.291a.248.248 0 0 0 .068.051c.052.034.1.051.155.085a9.918 9.918 0 0 0 1.25.583 14.423 14.423 0 0 0 2.516.736 12.005 12.005 0 0 0 4.435.017 11.28 11.28 0 0 0 2.484-.736 9.872 9.872 0 0 0 1.969-1.01 5.4 5.4 0 0 1-3.1 2.037c.514.65 1.13 1.386 1.13 1.386a6.258 6.258 0 0 0 5.239-2.6 22.933 22.933 0 0 0-2.46-9.985zM177.188-50.1a1.835 1.835 0 0 1-1.746-1.9 1.824 1.824 0 0 1 1.746-1.9 1.813 1.813 0 0 1 1.746 1.9 1.824 1.824 0 0 1-1.746 1.9zm6.25 0a1.835 1.835 0 0 1-1.746-1.9 1.824 1.824 0 0 1 1.746-1.9 1.824 1.824 0 0 1 1.746 1.9 1.824 1.824 0 0 1-1.746 1.9z" transform="translate(-170.389 63.284)" style="fill:#0070ed"/>
</svg>
