<svg xmlns="http://www.w3.org/2000/svg" width="20" height="20">
    <path style="fill:none" d="M0 0h20v20H0z"/>
    <path d="M16 1.538a6.517 6.517 0 0 1-1.885.517A3.294 3.294 0 0 0 15.558.24a6.575 6.575 0 0 1-2.085.8 3.286 3.286 0 0 0-5.594 2.99A9.322 9.322 0 0 1 1.113.6a3.287 3.287 0 0 0 1.016 4.383 3.273 3.273 0 0 1-1.486-.411v.041a3.284 3.284 0 0 0 2.632 3.219 3.3 3.3 0 0 1-1.482.056 3.287 3.287 0 0 0 3.066 2.279 6.586 6.586 0 0 1-4.076 1.406A6.635 6.635 0 0 1 0 11.526 9.3 9.3 0 0 0 5.032 13a9.275 9.275 0 0 0 9.34-9.338c0-.142 0-.284-.01-.425A6.658 6.658 0 0 0 16 1.538z" transform="translate(2 4)" style="fill:#0070ed"/>
</svg>
